<svg xmlns="http://www.w3.org/2000/svg" version="1.1" xmlns:xlink="http://www.w3.org/1999/xlink" xmlns:svgjs="http://svgjs.dev/svgjs" width="2000" height="2250" viewBox="0 0 2000 2250"><g transform="matrix(1,0,0,1,3.410605131648481e-13,0)"><svg viewBox="0 0 320 360" data-background-color="#000000" preserveAspectRatio="xMidYMid meet" height="2250" width="2000" xmlns="http://www.w3.org/2000/svg" xmlns:xlink="http://www.w3.org/1999/xlink"><g id="tight-bounds" transform="matrix(1,0,0,1,0,0)"><svg viewBox="0 0 320 360" height="360" width="320"><g><svg></svg></g><g><svg viewBox="0 0 320 360" height="360" width="320"><g><path d="M20.961 227.22l3.726 4.658-1.863-6.056c-0.466-2.795-3.726 0.466-1.863 1.398M25.153 224.425c1.397 2.329 2.795 4.658 2.795 6.987 0 3.261 2.795 4.658 5.123 5.589-3.261-3.726-5.124-13.974-7.918-12.576M204.017 26.929c7.918 0 15.371-0.932 23.756 0.931 20.495 5.124 37.729 15.371 49.374 29.811l32.606 52.169c1.397 13.042 4.192 27.482 3.726 43.319 3.261 0 2.795-4.658 6.521-5.59-3.726 9.316-5.59 20.961-6.521 34.469-2.329-7.453 0-18.632 0.466-24.687-3.261 5.124-5.124 1.397-5.124-0.932 0.466-3.726-1.397-3.261-2.795-4.658-5.124-4.658-8.384-9.782-12.11-17.7 2.329-6.055 2.795-14.905-4.658-19.563-2.329-1.397-5.124-3.726-6.521-7.453-1.863-5.124-5.124-11.179-4.193-19.097 0.466-2.329-6.987 5.124-11.179 1.863-18.166-12.576-36.332-27.016-58.224-39.127-11.645 0-20.029-4.192-24.221-9.316-3.726-4.658-0.932-10.713 4.658-11.179 3.261 0 6.987-0.932 9.782 0.932 0.466-1.863 2.329-4.192 4.657-4.192M157.904 16.215l0.932 0.466c4.658 0.932 6.987 7.453 12.11 5.124 0 3.261 0.466 6.521-0.466 8.85-1.397 3.726-5.59 3.726-8.85 3.726-31.208-1.863-49.374 11.179-68.471 22.358-5.124 3.261-10.713 5.59-14.906 9.782-20.029 18.632-41.921 35.866-47.045 70.335l-4.192 38.195c-0.466 4.192-5.124 8.384-4.192 13.508l3.26 22.824c-3.261-3.261-5.124 0.932-4.192 2.795 0.466 1.397 2.329 6.055 5.124 1.863 3.726 6.987 7.453 20.495 12.576 26.55 15.837 18.632 36.332 35.4 53.101 52.169 4.192-0.932 7.453-0.932 8.384-3.727 1.397 2.795-1.397 5.59-3.726 6.056 7.453 4.658 15.837 8.85 27.016 9.781 14.44 0.932 27.948 3.261 40.524 6.522 6.521-1.863 13.042-2.795 20.029-3.261 2.329 0 3.726-3.726 6.521-4.658l0.466-4.658c2.795 4.192 2.329-1.397 0.466-4.192 3.261 2.795 4.192 5.124 5.589 6.987 0-1.397 3.726-6.521 3.727-0.466l0.931-6.055c1.397-0.932 1.863 5.124 3.261 0.931 1.397-4.192 4.192-0.932 6.987-2.329-0.932 1.863-0.466 5.59 2.794 3.261l3.727-3.261c2.329 5.59 6.055 3.261 7.918 2.329 20.495-13.042 40.99-28.413 60.553-43.784l-0.466 6.055 2.329-7.453c2.329 2.329 4.192 0.466 5.124-0.931 2.795-4.658 6.521-9.316 12.577-13.508-7.453 20.029-16.303 35.866-27.482 48.908l-4.658 5.59c0 3.261-0.932 7.453-4.658 7.918-1.863 0.466-5.59-0.932-8.384 1.863-1.397 1.863 3.261 5.59-0.466 2.795-3.261-2.329-6.521 0-10.248 0.932-2.795 0.932 1.863 3.726 2.795 5.589 0.932 1.863 1.863 3.726 1.398 6.056l-5.124-5.59c-6.055 3.261-9.782 9.316-14.906 13.974-2.329 1.863-1.397 5.124-1.397 7.918-3.261 0-6.987-0.932-8.85 0.932-1.397 1.863-0.932 4.658-0.932 7.453-4.658-0.466-5.124-7.453-9.315-6.056-4.192 0.932-8.85 1.397-12.577 3.727 2.795 5.59-4.658 2.329-3.726 3.26-6.987-4.192-13.042-7.453-20.495-4.658-15.837-5.124-35.4-2.795-49.84-0.931 0-2.329 0.466-4.658-0.466-5.124-0.932 2.329-3.726 1.397-3.26 1.397-8.85-6.055-17.7-9.782-27.016-14.905-8.384 0.932-16.303-3.261-18.632-5.59-6.521-6.055-13.974-2.795-20.029-4.192-13.042-3.261-17.7-16.769-19.098-26.084-0.932-4.658-4.658-6.521-6.055-6.056-6.055-19.563-15.371-37.263-22.824-55.429-1.863-4.658-1.397-9.316-1.397-14.44 2.329 0.932 4.658 0.466 4.192-2.794-2.329-15.371-7.918-27.016-13.974-38.195 3.261-15.837 3.726-34.469 11.179-48.443 6.521-12.576 18.632-19.098 27.016-29.811 2.795-3.726 2.795-8.85 5.59-12.11 9.316-9.316 18.632-19.098 28.879-27.482 4.658-3.726 10.247 0 17.234-1.397 2.329-8.384 11.645-15.837 20.495-13.508 3.726 0.932 11.179-8.85 13.508-9.782 3.726-1.397 1.863 3.726 1.863 6.987 8.85-6.987 20.961-10.713 32.14-14.906" fill="#ed1703" fill-rule="nonzero" stroke="none" stroke-width="1" stroke-linecap="butt" stroke-linejoin="miter" stroke-miterlimit="10" stroke-dasharray="" stroke-dashoffset="0" font-family="none" font-weight="none" font-size="none" text-anchor="none" style="mix-blend-mode: normal" data-fill-palette-color="tertiary"></path></g><g transform="matrix(1,0,0,1,64,96.32711057108142)"><svg viewBox="0 0 192 167.34577885783716" height="167.34577885783716" width="192"><g><svg viewBox="0 0 192 167.34577885783716" height="167.34577885783716" width="192"><g><svg viewBox="0 0 192 167.34577885783716" height="167.34577885783716" width="192"><g><svg viewBox="0 0 192 167.34577885783716" height="167.34577885783716" width="192"><g><svg viewBox="0 0 192 167.34577885783716" height="167.34577885783716" width="192"><path d="M191.55 35.892C190.648 18.522 188.075 13.693 188.075 13.693 180.177-4.198 170.321-0.342 161.466 2.229 145.832 2.333 130.262 6.154 114.664 8.204 81.926 8.517 48.907 3.375 16.331 16.055 13.271 19.946-3.175 16.82 0.544 38.116 1.519 46.975 5.075 56.806 4.967 64.936 5.455 66.36 6.132 63.095 6.42 65.144 7.431 70.668 9.083 68.063 10.437 71.328 8.551 80.048 9.905 87.309 11.195 94.917 8.921 96.897 6.005 95.959 4.696 102.525 4.561 107.285 3.83 106.382 3.027 106.173 2.44 106.034 1.257 106.555 1.456 108.049 2.133 113.156-0.774 116.109 1.05 121.112-0.205 126.531 1.916 131.221 1.627 137.093 1.591 138.274 1.79 139.281 2.106 139.559 3.505 141.053 1.465 143.971 1.682 147.133 16.033 168.742 31.604 153.803 46.308 163.739 50.126 156.791 47.256 166.205 48.781 164.746 49.972 163.044 50.839 170.096 52.184 166.101 52.392 164.955 52.076 162.245 52.816 162.766 53.204 163.044 53.547 162.975 53.601 161.376 53.682 158.979 52.969 160.473 52.78 159.223 54.829 152.9 54.323 167.942 56.246 167.317 56.156 165.476 55.596 162.836 56.742 163.183 57.88 160.543 57.916 158.354 58.927 164.295 58.963 165.58 59.143 166.483 59.432 167.109 62.591 160.647 65.732 169.402 69.045 166.483 71.076 163.287 73.026 168.22 75.084 167.004 75.806 166.032 76.537 164.295 77.232 167.213 85.744 167.838 94.815 165.233 102.885 167.317 124.449 163.426 147.493 168.915 170.23 163.774 175.592 161.793 181.161 158.979 186.387 156.721 186.387 156.721 190.621 150.537 190.621 122.745S191.523 98.426 191.659 76.296C191.794 54.166 192.426 53.263 191.523 35.892Z" opacity="1" fill="#ed1703" data-fill-palette-color="tertiary"></path><g transform="matrix(1,0,0,1,27.072000000000003,19.1)"><svg width="137.856" viewBox="-7.55 -37.25 41.15 38.55" height="129.14577885783717" data-palette-color="#ffffff"><path d="M21.55-30.95L21.8-30.75Q21.8-30.65 21.45-29.88 21.1-29.1 12.15-13.15L12.15-13.15Q19.55-16.2 25.35-21.53 31.15-26.85 31.15-30.8L31.15-30.8Q31.15-35.55 22.25-35.55L22.25-35.55Q17.05-35.55 10.5-33.15 3.95-30.75-0.75-27.05-5.45-23.35-5.45-20.05L-5.45-20.05Q-5.45-17.25-1.95-17.25L-1.95-17.25Q1-17.25 5.03-19.33 9.05-21.4 12.25-24.85L12.25-24.85Q12.65-25.5 12.98-25.5 13.3-25.5 13.3-25.15L13.3-25.15Q13.3-24 10.35-21.63 7.4-19.25 3.25-17.28-0.9-15.3-3.7-15.3L-3.7-15.3Q-7.55-15.3-7.55-19.25L-7.55-19.25Q-7.55-22.7-2.13-27 3.3-31.3 10.85-34.27 18.4-37.25 24.1-37.25L24.1-37.25Q33.6-37.25 33.6-32L33.6-32Q33.6-27.45 26.88-21.3 20.15-15.15 11.4-11.8L11.4-11.8Q6.4-2.85 4.75-0.05L4.75-0.05Q4.45 0.6 3.65 0.95 2.85 1.3 2.43 1.3 2 1.3 2 1.05L2 1.05 8.65-10.85Q5.5-9.9 2.8-9.6L2.8-9.6Q2.5-9.6 2.5-10.23 2.5-10.85 3.05-10.9L3.05-10.9Q6-11.05 9.4-12.15L9.4-12.15 19.4-30Q19.55-30.4 20.3-30.68 21.05-30.95 21.55-30.95L21.55-30.95Z" opacity="1" transform="matrix(1,0,0,1,0,0)" fill="#ffffff" class="undefined-text-0" data-fill-palette-color="quaternary" id="text-0"></path></svg></g></svg></g></svg></g></svg></g><g></g></svg></g></svg></g></svg></g><defs></defs></svg><rect width="320" height="360" fill="none" stroke="none" visibility="hidden"></rect></g></svg></g></svg>